<svg xmlns="http://www.w3.org/2000/svg" width="900" height="420" viewBox="0 0 900 420">
    <defs>
    <linearGradient id="bg" x1="0" y1="0" x2="1" y2="1">
      <stop offset="0%" stop-color="hsl(10,70%,55%)"/>
      <stop offset="100%" stop-color="hsl(45,70%,55%)"/>
    </linearGradient>
    <filter id="shadow" x="-30%" y="-30%" width="160%" height="160%">
      <feDropShadow dx="0" dy="12" stdDeviation="14" flood-color="#000" flood-opacity="0.22"/>
    </filter>
    <filter id="soft" x="-20%" y="-20%" width="140%" height="140%">
      <feGaussianBlur stdDeviation="10"/>
    </filter>
  </defs>
  <rect width="900" height="420" fill="url(#bg)"/>
  <circle cx="760" cy="110" r="120" fill="rgba(255,255,255,0.18)"/>
  <circle cx="640" cy="250" r="80" fill="rgba(255,255,255,0.14)"/>
      <g transform="translate(140,90)" filter="url(#shadow)">
      <path d="M60,40 h420 a24,24 0 0 1 24,24 v56
               a22,22 0 0 0 0,44 v56 a24,24 0 0 1 -24,24 h-420
               a24,24 0 0 1 -24,-24 v-56
               a22,22 0 0 0 0,-44 v-56 a24,24 0 0 1 24,-24 z"
            fill="rgba(255,255,255,0.92)"/>
      <rect x="110" y="75" width="300" height="22" rx="10" fill="rgba(36,39,81,0.22)"/>
      <rect x="110" y="115" width="260" height="18" rx="9" fill="rgba(36,39,81,0.18)"/>
      <circle cx="92" cy="140" r="14" fill="rgba(255,92,92,0.85)"/>
      <circle cx="118" cy="140" r="14" fill="rgba(229,183,88,0.85)"/>
      <circle cx="144" cy="140" r="14" fill="rgba(72,113,219,0.85)"/>
    </g>
</svg>