<svg xmlns="http://www.w3.org/2000/svg" width="900" height="420" viewBox="0 0 900 420">
    <defs>
    <linearGradient id="bg" x1="0" y1="0" x2="1" y2="1">
      <stop offset="0%" stop-color="hsl(47,70%,55%)"/>
      <stop offset="100%" stop-color="hsl(82,70%,55%)"/>
    </linearGradient>
    <filter id="shadow" x="-30%" y="-30%" width="160%" height="160%">
      <feDropShadow dx="0" dy="12" stdDeviation="14" flood-color="#000" flood-opacity="0.22"/>
    </filter>
    <filter id="soft" x="-20%" y="-20%" width="140%" height="140%">
      <feGaussianBlur stdDeviation="10"/>
    </filter>
  </defs>
  <rect width="900" height="420" fill="url(#bg)"/>
  <circle cx="760" cy="110" r="120" fill="rgba(255,255,255,0.18)"/>
  <circle cx="640" cy="250" r="80" fill="rgba(255,255,255,0.14)"/>
      <g transform="translate(270,60)" filter="url(#shadow)">
      <path d="M175,45
               c-38,0 -70,26 -84,62
               l-48,44 c-10,10 -10,26 0,36
               l28,28 v150 c0,18 14,32 32,32 h244 c18,0 32,-14 32,-32 v-150
               l28,-28 c10,-10 10,-26 0,-36 l-48,-44
               c-14,-36 -46,-62 -84,-62
               z"
            fill="rgba(255,255,255,0.92)"/>
      <path d="M155,55 c0,55 40,92 95,92 c55,0 95,-37 95,-92"
            fill="none" stroke="rgba(36,39,81,0.18)" stroke-width="14" stroke-linecap="round"/>
      <rect x="150" y="250" width="190" height="22" rx="11" fill="rgba(36,39,81,0.18)"/>
    </g>
</svg>