<svg xmlns="http://www.w3.org/2000/svg" width="900" height="420" viewBox="0 0 900 420">
    <defs>
    <linearGradient id="bg" x1="0" y1="0" x2="1" y2="1">
      <stop offset="0%" stop-color="hsl(84,70%,55%)"/>
      <stop offset="100%" stop-color="hsl(119,70%,55%)"/>
    </linearGradient>
    <filter id="shadow" x="-30%" y="-30%" width="160%" height="160%">
      <feDropShadow dx="0" dy="12" stdDeviation="14" flood-color="#000" flood-opacity="0.22"/>
    </filter>
    <filter id="soft" x="-20%" y="-20%" width="140%" height="140%">
      <feGaussianBlur stdDeviation="10"/>
    </filter>
  </defs>
  <rect width="900" height="420" fill="url(#bg)"/>
  <circle cx="760" cy="110" r="120" fill="rgba(255,255,255,0.18)"/>
  <circle cx="640" cy="250" r="80" fill="rgba(255,255,255,0.14)"/>
      <g transform="translate(310,95)" filter="url(#shadow)">
      <rect x="40" y="110" width="280" height="200" rx="28" fill="rgba(255,255,255,0.92)"/>
      <rect x="40" y="90" width="280" height="60" rx="22" fill="rgba(255,255,255,0.86)"/>
      <rect x="170" y="90" width="26" height="220" rx="13" fill="rgba(255,92,92,0.80)"/>
      <rect x="40" y="170" width="280" height="26" rx="13" fill="rgba(255,92,92,0.80)"/>
      <path d="M184,86 c-18,-18 -50,-16 -64,6 c-12,20 8,46 64,46"
            fill="none" stroke="rgba(229,183,88,0.90)" stroke-width="16" stroke-linecap="round"/>
      <path d="M184,86 c18,-18 50,-16 64,6 c12,20 -8,46 -64,46"
            fill="none" stroke="rgba(229,183,88,0.90)" stroke-width="16" stroke-linecap="round"/>
    </g>
</svg>