<svg xmlns="http://www.w3.org/2000/svg" width="900" height="420" viewBox="0 0 900 420">
    <defs>
    <linearGradient id="bg" x1="0" y1="0" x2="1" y2="1">
      <stop offset="0%" stop-color="hsl(158,70%,55%)"/>
      <stop offset="100%" stop-color="hsl(193,70%,55%)"/>
    </linearGradient>
    <filter id="shadow" x="-30%" y="-30%" width="160%" height="160%">
      <feDropShadow dx="0" dy="12" stdDeviation="14" flood-color="#000" flood-opacity="0.22"/>
    </filter>
    <filter id="soft" x="-20%" y="-20%" width="140%" height="140%">
      <feGaussianBlur stdDeviation="10"/>
    </filter>
  </defs>
  <rect width="900" height="420" fill="url(#bg)"/>
  <circle cx="760" cy="110" r="120" fill="rgba(255,255,255,0.18)"/>
  <circle cx="640" cy="250" r="80" fill="rgba(255,255,255,0.14)"/>
      <g transform="translate(280,85)" filter="url(#shadow)">
      <path d="M90,80 h260 v170 a36,36 0 0 1 -36,36 h-188 a36,36 0 0 1 -36,-36 z"
            fill="rgba(255,255,255,0.92)"/>
      <path d="M122,70 h196 a18,18 0 0 1 18,18 v10 H104 v-10 a18,18 0 0 1 18,-18 z"
            fill="rgba(255,255,255,0.86)"/>
      <path d="M350,125 h35 a46,46 0 0 1 0,92 h-35"
            fill="none" stroke="rgba(255,255,255,0.88)" stroke-width="18" stroke-linecap="round"/>
      <path d="M140,120 c30,-40 30,-60 0,-95" fill="none" stroke="rgba(255,255,255,0.55)" stroke-width="10" stroke-linecap="round"/>
      <path d="M205,120 c30,-40 30,-60 0,-95" fill="none" stroke="rgba(255,255,255,0.45)" stroke-width="10" stroke-linecap="round"/>
      <path d="M270,120 c30,-40 30,-60 0,-95" fill="none" stroke="rgba(255,255,255,0.40)" stroke-width="10" stroke-linecap="round"/>
      <rect x="120" y="215" width="200" height="20" rx="10" fill="rgba(36,39,81,0.18)"/>
    </g>
</svg>